<?xml version="1.0" encoding="iso-8859-1"?>
<!-- Generator: Adobe Illustrator 27.0.0, SVG Export Plug-In . SVG Version: 6.00 Build 0)  -->
<svg fill="#FFFFFF" version="1.1" baseProfile="basic" id="Layer_1"
	 xmlns="http://www.w3.org/2000/svg" xmlns:xlink="http://www.w3.org/1999/xlink" x="0px" y="0px" viewBox="0 0 32 32"
	 xml:space="preserve">
<path d="M30.362,8.749c-0.218-1.179-0.989-2.168-2.064-2.647c-0.508-0.228-1.096,0.002-1.32,0.506
	c-0.226,0.505,0.001,1.096,0.506,1.32c0.473,0.211,0.814,0.654,0.912,1.185c0.005,0.029,0.009,0.058,0.014,0.087
	c0.001,0.093,0.014,0.185-0.002,0.28c-0.145,0.815-0.918,1.362-1.738,1.217c-6.302-1.111-13.09-1.128-20.188-0.053
	c-0.518,3.798-0.475,8.104,0.132,11.988c0.127,0.818-0.433,1.586-1.251,1.714c-0.078,0.012-0.156,0.018-0.233,0.018
	c-0.361,0-0.699-0.131-0.962-0.353c-0.003-0.002-0.006-0.004-0.008-0.006c-0.119-0.101-0.217-0.226-0.3-0.361
	c-0.01-0.017-0.025-0.03-0.035-0.047c-0.085-0.151-0.146-0.319-0.175-0.501c-0.71-4.556-0.697-9.662,0.035-14.01
	c0.106-0.632,0.603-1.126,1.233-1.23c0.437-0.073,0.871-0.132,1.306-0.197c5.965-0.766,11.879-0.861,17.592-0.262
	c0.567,0.064,1.041-0.342,1.099-0.89c0.058-0.55-0.341-1.042-0.89-1.099C17.738,4.749,11.227,4.896,4.668,5.841
	C3.156,6.06,1.93,7.259,1.685,8.759c-0.808,4.979-0.822,9.893-0.043,14.604c0.266,1.597,1.546,2.835,3.113,3.013
	c3.665,0.414,7.384,0.621,11.132,0.621c3.772,0,7.575-0.21,11.379-0.63c1.547-0.172,2.827-1.378,3.113-2.934
	C31.271,18.569,31.266,13.628,30.362,8.749z M13,13.958c0-0.879,0.944-1.434,1.712-1.007l5.475,3.042c0.79,0.439,0.79,1.576,0,2.015
	l-5.475,3.042C13.944,21.476,13,20.92,13,20.042V13.958z"/>
</svg>